# xmcd CD database file
#
# Track frame offsets:
#	150
#	23600
#	45202
#	67430
#	86477
#	108785
#	131050
#	149947
#	171797
#	190262
#
# Disc length: 2826 seconds
#
# Revision: 1
# Processed by: cddbd v1.5.2PL0 Copyright (c) Steve Scherf et al.
# Submitted via: CDex 1.51
#
DISCID=8c0b080a
DTITLE=Orhan Gencebay - Gonul Dostu
DYEAR=1995
DGENRE=Arabesk
TTITLE0=Neyi Degistirdik Ki
TTITLE1=Yanar Yine Bu Yurek
TTITLE2=Bulunur
TTITLE3=Cakmak Cakmak Gozler
TTITLE4=Gidecek Yerim Olsaydi
TTITLE5=Gelin Birlik Olalim
TTITLE6=Almina
TTITLE7=Sadakan Olsun
TTITLE8=Sen Bilirsin
TTITLE9=Ne Cikarsa Bahtina
EXTD=YEAR: 1995
EXTT0=
EXTT1=
EXTT2=
EXTT3=
EXTT4=
EXTT5=
EXTT6=
EXTT7=
EXTT8=
EXTT9=
PLAYORDER=
